<svg xmlns="http://www.w3.org/2000/svg" xmlns:xlink="http://www.w3.org/1999/xlink" width="24" height="24" preserveAspectRatio="xMidYMid meet" viewBox="0 0 24 24" style="-ms-transform: rotate(360deg); -webkit-transform: rotate(360deg); transform: rotate(360deg);"><path d="M9 21H5c-1.1 0-2-.9-2-2V5c0-1.1.9-2 2-2h4c1.1 0 2 .9 2 2v14c0 1.1-.9 2-2 2zm6 0h4c1.1 0 2-.9 2-2v-5c0-1.1-.9-2-2-2h-4c-1.1 0-2 .9-2 2v5c0 1.1.9 2 2 2zm6-13V5c0-1.1-.9-2-2-2h-4c-1.1 0-2 .9-2 2v3c0 1.1.9 2 2 2h4c1.1 0 2-.9 2-2z" fill="#626262"/><rect x="0" y="0" width="24" height="24" fill="rgba(0, 0, 0, 0)" /></svg>